<svg width="40" height="41" viewBox="0 0 40 41" fill="none" xmlns="http://www.w3.org/2000/svg">
<path fill-rule="evenodd" clip-rule="evenodd" d="M14.9999 13.0833C13.8493 13.0833 12.9166 14.0161 12.9166 15.1667C12.9166 16.3173 13.8493 17.25 14.9999 17.25C16.1505 17.25 17.0833 16.3173 17.0833 15.1667C17.0833 14.0161 16.1505 13.0833 14.9999 13.0833ZM10.4166 15.1667C10.4166 12.6354 12.4686 10.5833 14.9999 10.5833C17.5312 10.5833 19.5833 12.6354 19.5833 15.1667C19.5833 17.698 17.5312 19.75 14.9999 19.75C12.4686 19.75 10.4166 17.698 10.4166 15.1667ZM24.9999 23.0833C23.8493 23.0833 22.9166 24.0161 22.9166 25.1667C22.9166 26.3173 23.8493 27.25 24.9999 27.25C26.1505 27.25 27.0833 26.3173 27.0833 25.1667C27.0833 24.0161 26.1505 23.0833 24.9999 23.0833ZM20.4166 25.1667C20.4166 22.6354 22.4686 20.5833 24.9999 20.5833C27.5312 20.5833 29.5833 22.6354 29.5833 25.1667C29.5833 27.698 27.5312 29.75 24.9999 29.75C22.4686 29.75 20.4166 27.698 20.4166 25.1667ZM29.2171 12.7172C29.7053 12.2291 29.7053 11.4376 29.2171 10.9494C28.729 10.4613 27.9375 10.4613 27.4494 10.9494L10.7827 27.6161C10.2945 28.1043 10.2945 28.8957 10.7827 29.3839C11.2709 29.872 12.0623 29.872 12.5505 29.3839L29.2171 12.7172Z" fill="#D90D25"/>
<path fill-rule="evenodd" clip-rule="evenodd" d="M19.9999 4.75C11.4855 4.75 4.58325 11.6523 4.58325 20.1667C4.58325 28.6811 11.4855 35.5833 19.9999 35.5833C28.5143 35.5833 35.4166 28.6811 35.4166 20.1667C35.4166 11.6523 28.5143 4.75 19.9999 4.75ZM2.08325 20.1667C2.08325 10.2716 10.1048 2.25 19.9999 2.25C29.895 2.25 37.9166 10.2716 37.9166 20.1667C37.9166 30.0618 29.895 38.0833 19.9999 38.0833C10.1048 38.0833 2.08325 30.0618 2.08325 20.1667Z" fill="#D90D25"/>
</svg>
