<svg width="40" height="40" viewBox="0 0 40 40" fill="none" xmlns="http://www.w3.org/2000/svg">
<path fill-rule="evenodd" clip-rule="evenodd" d="M8.44768 4.58398C8.3008 4.58398 8.16477 4.66132 8.08964 4.78753L4.64212 10.5794C4.60375 10.6438 4.5835 10.7175 4.5835 10.7925V13.334C4.5835 13.5641 4.77004 13.7507 5.00016 13.7507H11.6668C12.3572 13.7507 12.9168 14.3103 12.9168 15.0007C12.9168 15.691 12.3572 16.2507 11.6668 16.2507H5.00016C3.38933 16.2507 2.0835 14.9448 2.0835 13.334V10.7925C2.0835 10.2673 2.22528 9.75191 2.49389 9.30065L5.94141 3.50882C6.4673 2.62533 7.41951 2.08398 8.44768 2.08398H31.5526C32.5808 2.08398 33.533 2.62533 34.0589 3.50882L37.5064 9.30065C37.775 9.75191 37.9168 10.2673 37.9168 10.7925V13.334C37.9168 14.9448 36.611 16.2507 35.0002 16.2507H28.3335C27.6431 16.2507 27.0835 15.691 27.0835 15.0007C27.0835 14.3103 27.6431 13.7507 28.3335 13.7507H35.0002C35.2303 13.7507 35.4168 13.5641 35.4168 13.334V10.7925C35.4168 10.7175 35.3966 10.6438 35.3582 10.5794L31.9107 4.78753C31.8356 4.66132 31.6995 4.58398 31.5526 4.58398H8.44768Z" fill="#D90D25"/>
<path d="M15.4415 16.9986C15.0465 16.9986 14.6926 16.9345 14.3798 16.8063C14.0669 16.6781 13.8156 16.4883 13.6258 16.237C13.4412 15.9857 13.3438 15.6831 13.3335 15.3292H14.7337C14.7542 15.5292 14.8234 15.6831 14.9414 15.7908C15.0594 15.8933 15.2132 15.9446 15.403 15.9446C15.5979 15.9446 15.7518 15.901 15.8646 15.8138C15.9774 15.7215 16.0338 15.5959 16.0338 15.4369C16.0338 15.3035 15.9877 15.1932 15.8954 15.1061C15.8082 15.0189 15.6979 14.9471 15.5646 14.8906C15.4363 14.8342 15.2517 14.7701 15.0106 14.6983C14.6619 14.5906 14.3772 14.4829 14.1567 14.3752C13.9361 14.2675 13.7464 14.1085 13.5874 13.8982C13.4284 13.6879 13.3489 13.4135 13.3489 13.075C13.3489 12.5724 13.531 12.18 13.8951 11.8979C14.2593 11.6107 14.7337 11.4671 15.3184 11.4671C15.9133 11.4671 16.3929 11.6107 16.757 11.8979C17.1212 12.18 17.3161 12.575 17.3417 13.0827H15.9184C15.9082 12.9083 15.8441 12.7724 15.7261 12.675C15.6081 12.5724 15.4568 12.5211 15.2722 12.5211C15.1132 12.5211 14.985 12.5647 14.8875 12.6519C14.7901 12.734 14.7414 12.8545 14.7414 13.0135C14.7414 13.1879 14.8234 13.3238 14.9876 13.4212C15.1517 13.5187 15.4081 13.6238 15.7569 13.7366C16.1056 13.8546 16.3877 13.9674 16.6031 14.0752C16.8237 14.1829 17.0135 14.3393 17.1725 14.5444C17.3314 14.7496 17.4109 15.0137 17.4109 15.3369C17.4109 15.6446 17.3314 15.9241 17.1725 16.1754C17.0186 16.4267 16.7929 16.6268 16.4954 16.7755C16.198 16.9242 15.8466 16.9986 15.4415 16.9986Z" fill="#D90D25"/>
<path d="M21.7364 11.5441V12.598H19.5361V13.7366H21.1825V14.7599H19.5361V16.9448H18.2205V11.5441H21.7364Z" fill="#D90D25"/>
<path d="M25.182 16.9448L24.0588 14.906H23.7434V16.9448H22.4278V11.5441H24.6358C25.0615 11.5441 25.4231 11.6184 25.7206 11.7672C26.0232 11.9159 26.2488 12.1211 26.3976 12.3826C26.5463 12.6391 26.6207 12.9263 26.6207 13.2443C26.6207 13.6033 26.5181 13.9238 26.3129 14.2059C26.1129 14.488 25.8154 14.6881 25.4205 14.806L26.6668 16.9448H25.182ZM23.7434 13.9751H24.5589C24.7999 13.9751 24.9794 13.9162 25.0974 13.7982C25.2205 13.6802 25.282 13.5135 25.282 13.2981C25.282 13.093 25.2205 12.9314 25.0974 12.8134C24.9794 12.6955 24.7999 12.6365 24.5589 12.6365H23.7434V13.9751Z" fill="#D90D25"/>
<path fill-rule="evenodd" clip-rule="evenodd" d="M6.25016 15.0007V35.0007C6.25016 35.2308 6.43671 35.4173 6.66683 35.4173H33.3335C33.5636 35.4173 33.7502 35.2308 33.7502 35.0007V15.0007H36.2502V35.0007C36.2502 36.6115 34.9443 37.9173 33.3335 37.9173H6.66683C5.056 37.9173 3.75016 36.6115 3.75016 35.0007V15.0007H6.25016Z" fill="#D90D25"/>
<path fill-rule="evenodd" clip-rule="evenodd" d="M12.0835 26.6667C12.0835 25.0558 13.3893 23.75 15.0002 23.75H25.0002C26.611 23.75 27.9168 25.0558 27.9168 26.6667V35C27.9168 36.6108 26.611 37.9167 25.0002 37.9167H15.0002C13.3893 37.9167 12.0835 36.6108 12.0835 35V26.6667ZM15.0002 26.25C14.77 26.25 14.5835 26.4365 14.5835 26.6667V35C14.5835 35.2301 14.77 35.4167 15.0002 35.4167H25.0002C25.2303 35.4167 25.4168 35.2301 25.4168 35V26.6667C25.4168 26.4365 25.2303 26.25 25.0002 26.25H15.0002Z" fill="#D90D25"/>
</svg>
