<svg width="40" height="41" viewBox="0 0 40 41" fill="none" xmlns="http://www.w3.org/2000/svg">
<path fill-rule="evenodd" clip-rule="evenodd" d="M13.7499 6.83333C13.7499 4.30203 15.8019 2.25 18.3333 2.25H23.6666C26.1979 2.25 28.2499 4.30203 28.2499 6.83333V20.1667C28.2499 22.698 26.1979 24.75 23.6666 24.75H18.3333C15.8019 24.75 13.7499 22.698 13.7499 20.1667V6.83333ZM18.3333 4.75C17.1827 4.75 16.2499 5.68274 16.2499 6.83333V20.1667C16.2499 21.3173 17.1827 22.25 18.3333 22.25H23.6666C24.8172 22.25 25.7499 21.3173 25.7499 20.1667V6.83333C25.7499 5.68274 24.8172 4.75 23.6666 4.75H18.3333Z" fill="#D90D25"/>
<path d="M21.7499 21.25C21.7499 21.6642 21.4141 22 20.9999 22C20.5857 22 20.2499 21.6642 20.2499 21.25C20.2499 20.8358 20.5857 20.5 20.9999 20.5C21.4141 20.5 21.7499 20.8358 21.7499 21.25Z" fill="#D90D25"/>
<path fill-rule="evenodd" clip-rule="evenodd" d="M7.08325 27.6667C7.08325 26.5161 8.01599 25.5833 9.16659 25.5833H30.8333C31.9838 25.5833 32.9166 26.5161 32.9166 27.6667V35.3333C32.9166 36.4839 31.9838 37.4167 30.8333 37.4167H9.16658C8.01599 37.4167 7.08325 36.4839 7.08325 35.3333V27.6667ZM9.58325 28.0833V34.9167H30.4166V28.0833H9.58325Z" fill="#D90D25"/>
<path fill-rule="evenodd" clip-rule="evenodd" d="M16.9388 25.6629C17.5852 25.9053 17.9127 26.6258 17.6703 27.2722L14.1703 36.6056C13.9279 37.252 13.2074 37.5795 12.561 37.3371C11.9146 37.0947 11.5871 36.3742 11.8295 35.7278L15.3295 26.3944C15.5719 25.748 16.2924 25.4205 16.9388 25.6629Z" fill="#D90D25"/>
</svg>
