<svg width="40" height="41" viewBox="0 0 40 41" fill="none" xmlns="http://www.w3.org/2000/svg">
<path fill-rule="evenodd" clip-rule="evenodd" d="M2.91675 19.3337C2.91675 18.6433 3.47639 18.0837 4.16675 18.0837H35.8334C36.5238 18.0837 37.0834 18.6433 37.0834 19.3337C37.0834 20.024 36.5238 20.5837 35.8334 20.5837H4.16675C3.47639 20.5837 2.91675 20.024 2.91675 19.3337Z" fill="#D90D25"/>
<path fill-rule="evenodd" clip-rule="evenodd" d="M23.384 4.28311C23.8721 4.77126 23.8721 5.56272 23.384 6.05088C22.4831 6.95179 20.3275 8.67186 18.4758 10.112C17.5336 10.8449 16.6443 11.5249 15.9908 12.0216C15.664 12.27 15.3958 12.4727 15.2093 12.6135L14.9933 12.7761L14.9607 12.8006C14.9483 12.8113 14.935 12.8226 14.9207 12.8344C14.8611 12.8834 14.7851 12.9411 14.6909 13.0039C14.502 13.1298 14.2429 13.2745 13.9018 13.4109C13.2174 13.6847 12.2243 13.917 10.8334 13.917H4.16675C3.47639 13.917 2.91675 13.3573 2.91675 12.667C2.91675 11.9766 3.47639 11.417 4.16675 11.417H10.8334C11.9425 11.417 12.6161 11.2326 12.9733 11.0897C13.1531 11.0178 13.2586 10.9541 13.3041 10.9238C13.3101 10.9198 13.3151 10.9164 13.3191 10.9135L13.3457 10.887L13.4167 10.8337L13.4907 10.7781L13.7037 10.6177C13.8882 10.4785 14.1539 10.2775 14.4781 10.0312C15.1267 9.53823 16.0082 8.86411 16.941 8.13863C18.8394 6.66212 20.8504 5.04886 21.6162 4.28311C22.1044 3.79495 22.8958 3.79495 23.384 4.28311Z" fill="#D90D25"/>
<path fill-rule="evenodd" clip-rule="evenodd" d="M2.91675 26.0003C2.91675 25.31 3.47639 24.7503 4.16675 24.7503H15.0001C17.4061 24.7503 19.5124 25.7069 20.9677 26.6024C21.7042 27.0557 22.2985 27.5084 22.7111 27.8498C22.9179 28.021 23.0805 28.1654 23.1941 28.2696C23.2508 28.3218 23.2955 28.3639 23.3273 28.3945L23.3287 28.3958L23.4633 28.5038C23.5795 28.597 23.7462 28.7311 23.9488 28.8945C24.3539 29.2212 24.9032 29.6659 25.4791 30.137C26.5997 31.0539 27.9118 32.1442 28.384 32.6164C28.8721 33.1046 28.8721 33.8961 28.384 34.3842C27.8958 34.8724 27.1044 34.8724 26.6162 34.3842C26.2551 34.0231 25.0671 33.0301 23.896 32.0719C23.3261 31.6056 22.7816 31.1649 22.3795 30.8405C22.1784 30.6784 22.0131 30.5455 21.8982 30.4533L21.7199 30.3103L21.6652 30.2665L21.6181 30.2195L21.6167 30.218L21.596 30.198C21.5769 30.1797 21.5459 30.1503 21.5034 30.1112C21.4183 30.0332 21.288 29.9172 21.1172 29.7758C20.7746 29.4923 20.2751 29.1117 19.6575 28.7316C18.4044 27.9605 16.7607 27.2503 15.0001 27.2503H4.16675C3.47639 27.2503 2.91675 26.6907 2.91675 26.0003Z" fill="#D90D25"/>
</svg>
